<?xml version="1.0" encoding="UTF-8" standalone="no"?>
<!-- Created with Inkscape (http://www.inkscape.org/) -->

<svg
   width="125.34201mm"
   height="23.925678mm"
   viewBox="0 0 125.34201 23.925678"
   version="1.1"
   id="svg1"
   inkscape:version="1.4.3 (1:1.4.3+202512261034+0d15f75042)"
   sodipodi:docname="logo.svg"
   inkscape:export-filename="logo.png"
   inkscape:export-xdpi="96"
   inkscape:export-ydpi="96"
   xmlns:inkscape="http://www.inkscape.org/namespaces/inkscape"
   xmlns:sodipodi="http://sodipodi.sourceforge.net/DTD/sodipodi-0.dtd"
   xmlns="http://www.w3.org/2000/svg"
   xmlns:svg="http://www.w3.org/2000/svg">
  <sodipodi:namedview
     id="namedview1"
     pagecolor="#ffffff"
     bordercolor="#000000"
     borderopacity="0.25"
     inkscape:showpageshadow="2"
     inkscape:pageopacity="0.0"
     inkscape:pagecheckerboard="0"
     inkscape:deskcolor="#d1d1d1"
     inkscape:document-units="mm"
     inkscape:zoom="0.72248176"
     inkscape:cx="315.5789"
     inkscape:cy="-50.520307"
     inkscape:window-width="1920"
     inkscape:window-height="1016"
     inkscape:window-x="0"
     inkscape:window-y="27"
     inkscape:window-maximized="1"
     inkscape:current-layer="layer1" />
  <defs
     id="defs1" />
  <g
     inkscape:label="Layer 1"
     inkscape:groupmode="layer"
     id="layer1"
     transform="translate(-35.634758,-73.000136)">
    <path
       id="path1"
       style="opacity:1;fill:#3675dc;stroke-width:0.106496;stroke-linecap:round;stroke-linejoin:round;stroke-miterlimit:2.1;paint-order:fill markers stroke;fill-opacity:1"
       inkscape:transform-center-x="-0.70768588"
       inkscape:transform-center-y="-2.543103"
       d="m 55.29508,96.261838 c -1.468854,0.855841 -11.601235,0.896149 -13.076849,0.05203 -1.475616,-0.844134 -6.576704,-9.598882 -6.583466,-11.298874 -0.0067,-1.699989 5.02453,-10.495037 6.493384,-11.350887 1.468855,-0.855851 11.601235,-0.896148 13.07685,-0.05201 1.475616,0.84414 6.576705,9.59889 6.583466,11.29888 0.0067,1.699991 -5.024535,10.49504 -6.493385,11.350889 z" />
    <circle
       style="fill:#ffffff;fill-opacity:1;stroke-width:0.230379;stroke-linecap:round;stroke-linejoin:round;stroke-miterlimit:2.1;paint-order:fill markers stroke"
       id="path2"
       cx="51.372952"
       cy="78.678993"
       r="1.453693" />
    <path
       id="path3"
       style="opacity:1;fill:#00d0ff;fill-opacity:1;stroke-width:0.0697347;stroke-linecap:round;stroke-linejoin:round;stroke-miterlimit:2.1;paint-order:fill markers stroke"
       d="M 54.708529 81.702447 C 54.062247 81.702447 53.415741 81.972758 52.920525 82.51325 L 43.61825 92.666119 C 44.412571 94.116809 45.335491 95.644531 46.170032 96.876715 C 49.693386 97.031512 54.337 96.819986 55.295057 96.261765 C 56.386969 95.625545 59.447674 90.601958 60.943807 87.367218 L 56.496017 82.51325 C 56.000802 81.972756 55.354813 81.702447 54.708529 81.702447 z " />
    <path
       id="rect2"
       style="opacity:1;fill:#bcd6ff;stroke-width:0.0697347;stroke-linecap:round;stroke-linejoin:round;stroke-miterlimit:2.1;paint-order:fill markers stroke;fill-opacity:1"
       d="M 48.024699 80.489085 C 47.378417 80.489085 46.732428 80.759396 46.237212 81.299888 L 37.985519 90.30554 C 37.985594 90.305672 37.985444 90.305924 37.985519 90.306056 C 39.532017 93.043203 41.414011 95.85384 42.218335 96.313958 C 43.693949 97.158077 53.826203 97.117606 55.295057 96.261765 C 55.997082 95.852719 57.513041 93.630467 58.903622 91.235715 L 49.812704 81.299888 C 49.317489 80.759394 48.670983 80.489085 48.024699 80.489085 z " />
    <path
       style="font-weight:500;font-size:22.9506px;line-height:1.2;font-family:'Rethink Sans';-inkscape-font-specification:'Rethink Sans, Medium';text-align:center;letter-spacing:0px;word-spacing:0px;text-anchor:middle;fill:#11142d;stroke-width:1.02479;stroke-linecap:round;stroke-linejoin:round;stroke-miterlimit:2.1;paint-order:fill markers stroke"
       d="m 70.138519,93.121887 5.898304,-16.06542 h 2.66227 l 5.898304,16.06542 h -2.593418 l -1.354085,-3.901602 h -6.586822 l -1.377036,3.901602 z m 4.636021,-5.852403 h 5.163885 l -2.593418,-7.321241 z m 16.157163,6.12781 q -1.698344,0 -2.937676,-0.803271 -1.216382,-0.826221 -1.88195,-2.180307 -0.642616,-1.354085 -0.642616,-3.029479 0,-1.652443 0.642616,-2.983578 0.665568,-1.354085 1.88195,-2.134405 1.239332,-0.803271 2.937676,-0.803271 1.262283,0 2.29506,0.527863 1.032777,0.504914 1.675394,1.445888 v -6.380267 h 2.455714 v 16.06542 h -2.363912 l -0.0918,-1.767196 q -0.550814,0.895073 -1.583591,1.468838 -1.032777,0.573765 -2.386863,0.573765 z m 0.481963,-2.134405 q 1.078678,0 1.858999,-0.504914 0.78032,-0.504913 1.193431,-1.377036 0.41311,-0.872122 0.41311,-1.950801 0,-1.239332 -0.481962,-2.088504 -0.459012,-0.849172 -1.262283,-1.308184 -0.78032,-0.459012 -1.744246,-0.459012 -0.986875,0 -1.767196,0.481962 -0.78032,0.481963 -1.239332,1.331135 -0.436062,0.849172 -0.436062,2.019653 0,1.14753 0.459012,2.019653 0.459012,0.872122 1.239333,1.354085 0.78032,0.481963 1.767196,0.481963 z m 8.5376,1.858998 V 81.73839 h 2.340964 l 0.0688,1.468838 q 0.55081,-0.849172 1.44589,-1.285233 0.91802,-0.459012 1.9967,-0.459012 1.30818,0 2.34096,0.550814 1.05573,0.527864 1.62949,1.675394 0.59672,-1.055728 1.62949,-1.629493 1.03278,-0.596715 2.24916,-0.596715 1.33114,0 2.36392,0.550814 1.03277,0.527864 1.60654,1.629493 0.59671,1.101628 0.59671,2.777022 v 6.701575 h -2.40981 V 86.74162 q 0,-1.53769 -0.66557,-2.363911 -0.66556,-0.826222 -1.97375,-0.826222 -1.30818,0 -2.0885,0.918024 -0.78032,0.918024 -0.78032,2.547517 v 6.104859 h -2.40982 V 86.74162 q 0,-1.53769 -0.68851,-2.363911 -0.68852,-0.826222 -1.95081,-0.826222 -1.19343,0 -2.0426,0.872123 -0.82622,0.849172 -0.82622,2.593418 v 6.104859 z M 122.00677,79.741688 q -0.66557,0 -1.14753,-0.459012 -0.45901,-0.481963 -0.45901,-1.170481 0,-0.665567 0.45901,-1.124579 0.48196,-0.459012 1.14753,-0.459012 0.68852,0 1.14753,0.459012 0.48196,0.459012 0.48196,1.124579 0,0.688518 -0.48196,1.170481 -0.45901,0.459012 -1.14753,0.459012 z m -1.21638,13.380199 V 81.73839 h 2.43276 v 11.383497 z m 5.18683,0 V 81.73839 h 2.34096 l 0.0459,1.675394 q 0.57377,-0.940975 1.58359,-1.445888 1.03278,-0.504913 2.18031,-0.504913 1.9967,0 3.23604,1.262283 1.23933,1.239332 1.23933,3.717997 v 6.678624 h -2.43277 V 86.74162 q 0,-1.53769 -0.68851,-2.363911 -0.68852,-0.849172 -2.06556,-0.849172 -1.35408,0 -2.1803,0.940974 -0.82623,0.918024 -0.82623,2.547517 v 6.104859 z m 18.31455,0.275407 q -1.67539,0 -2.96062,-0.757369 -1.28524,-0.75737 -2.01966,-2.111456 -0.71146,-1.354085 -0.71146,-3.098331 0,-1.813097 0.71146,-3.144232 0.71147,-1.331134 1.99671,-2.065554 1.30818,-0.757369 3.00652,-0.757369 1.65245,0 2.89178,0.734419 1.23933,0.711468 1.92785,1.950801 0.71147,1.239332 0.71147,2.822923 0,0.321309 -0.023,0.550815 0,0.229506 -0.0459,0.550814 h -8.74418 q 0.0688,0.963925 0.48196,1.721295 0.41311,0.734419 1.12458,1.170481 0.71147,0.413111 1.62949,0.413111 0.98688,0 1.6754,-0.436062 0.71147,-0.459012 1.05572,-1.285233 h 2.52457 q -0.29836,1.032777 -1.00983,1.881949 -0.68851,0.849172 -1.74424,1.354085 -1.05573,0.504913 -2.47867,0.504913 z m -3.23603,-7.045834 h 6.31141 q -0.0459,-1.331134 -0.94097,-2.088504 -0.89507,-0.780321 -2.18031,-0.780321 -1.14753,0 -2.0885,0.711469 -0.94098,0.711469 -1.10163,2.157356 z m 9.20316,6.770427 3.8557,-5.714699 -3.87865,-5.668798 h 2.68522 l 2.77702,4.108157 2.66227,-4.108157 h 2.59342 l -3.8557,5.668798 3.87865,5.714699 h -2.66227 l -2.79997,-4.131108 -2.66227,4.131108 z"
       id="text3"
       aria-label="Adminex" />
  </g>
</svg>
